<svg id="visual" viewBox="0 0 960 540" width="960" height="540" xmlns="http://www.w3.org/2000/svg" xmlns:xlink="http://www.w3.org/1999/xlink" version="1.1"><rect x="0" y="0" width="960" height="540" fill="#e9e3e6"></rect><path d="M0 233L32 238.7C64 244.3 128 255.7 192 240.5C256 225.3 320 183.7 384 168.8C448 154 512 166 576 184.3C640 202.7 704 227.3 768 219C832 210.7 896 169.3 928 148.7L960 128L960 0L928 0C896 0 832 0 768 0C704 0 640 0 576 0C512 0 448 0 384 0C320 0 256 0 192 0C128 0 64 0 32 0L0 0Z" fill="#b2b2b2" stroke-linecap="round" stroke-linejoin="miter"></path></svg>